{
    "asset" : {
        "generator" : "Khronos glTF Blender I/O v1.7.33",
        "version" : "2.0"
    },
    "scene" : 0,
    "scenes" : [
        {
            "name" : "Scene",
            "nodes" : [
                0,
                1,
                2,
                3,
                4,
                5
            ]
        }
    ],
    "nodes" : [
        {
            "mesh" : 0,
            "name" : "Cube.006",
            "rotation" : [
                -0.1475839614868164,
                -0.228054016828537,
                -0.06856974959373474,
                0.9599523544311523
            ],
            "scale" : [
                5.89346981048584,
                5.893470287322998,
                5.893470287322998
            ],
            "translation" : [
                -0.021379411220550537,
                25.793455123901367,
                1.7508057355880737
            ]
        },
        {
            "mesh" : 1,
            "name" : "Cube.007",
            "rotation" : [
                0.574431300163269,
                -0.2097446620464325,
                0.11277244240045547,
                0.7831463813781738
            ],
            "scale" : [
                6.033247470855713,
                0.1688629537820816,
                5.893470287322998
            ],
            "translation" : [
                -2.1818861961364746,
                25.113767623901367,
                2.894577980041504
            ]
        },
        {
            "mesh" : 2,
            "name" : "Plane.006",
            "rotation" : [
                0.48483002185821533,
                -0.6910374164581299,
                -0.33734387159347534,
                0.4166608154773712
            ],
            "scale" : [
                0.8398746252059937,
                0.8398746252059937,
                0.8398745656013489
            ],
            "translation" : [
                5.294633388519287,
                29.53656768798828,
                3.3690073490142822
            ]
        },
        {
            "mesh" : 3,
            "name" : "Plane.007",
            "rotation" : [
                0.48483002185821533,
                -0.6910374164581299,
                -0.33734387159347534,
                0.4166608154773712
            ],
            "scale" : [
                0.8398746252059937,
                0.8398746252059937,
                0.8398745656013489
            ],
            "translation" : [
                5.120996952056885,
                26.713502883911133,
                3.2932403087615967
            ]
        },
        {
            "mesh" : 4,
            "name" : "Plane.008",
            "rotation" : [
                0.48483002185821533,
                -0.6910374164581299,
                -0.33734387159347534,
                0.4166608154773712
            ],
            "scale" : [
                0.8398746252059937,
                0.8398746252059937,
                0.8398745656013489
            ],
            "translation" : [
                4.034633636474609,
                24.564966201782227,
                5.2541584968566895
            ]
        },
        {
            "mesh" : 5,
            "name" : "Plane.009",
            "rotation" : [
                0.48483002185821533,
                -0.6910374164581299,
                -0.33734387159347534,
                0.4166608154773712
            ],
            "scale" : [
                0.8398746252059937,
                0.8398746252059937,
                0.8398745656013489
            ],
            "translation" : [
                3.820396661758423,
                21.495044708251953,
                5.225528717041016
            ]
        }
    ],
    "materials" : [
        {
            "doubleSided" : true,
            "name" : "Material.010",
            "pbrMetallicRoughness" : {
                "baseColorFactor" : [
                    0.1204967200756073,
                    0.3883453905582428,
                    1,
                    1
                ],
                "metallicFactor" : 0,
                "roughnessFactor" : 0.5
            }
        },
        {
            "doubleSided" : true,
            "name" : "Material.021",
            "pbrMetallicRoughness" : {
                "metallicFactor" : 0,
                "roughnessFactor" : 0.5
            }
        },
        {
            "doubleSided" : true,
            "name" : "Material.023",
            "pbrMetallicRoughness" : {
                "baseColorFactor" : [
                    0.29423850774765015,
                    0.07594815641641617,
                    0.01627506874501705,
                    1
                ],
                "metallicFactor" : 0,
                "roughnessFactor" : 0.5
            }
        },
        {
            "doubleSided" : true,
            "name" : "Material.012",
            "pbrMetallicRoughness" : {
                "baseColorFactor" : [
                    0.07846125215291977,
                    0.07846125215291977,
                    0.07846125215291977,
                    1
                ],
                "metallicFactor" : 0,
                "roughnessFactor" : 0.5
            }
        },
        {
            "doubleSided" : true,
            "name" : "Material.008",
            "pbrMetallicRoughness" : {
                "baseColorFactor" : [
                    0.17284518480300903,
                    0.34155288338661194,
                    0.05619368702173233,
                    1
                ],
                "metallicFactor" : 0,
                "roughnessFactor" : 0.5
            }
        },
        {
            "doubleSided" : true,
            "name" : "Material.011",
            "pbrMetallicRoughness" : {
                "baseColorFactor" : [
                    0.8000000715255737,
                    0.0972694382071495,
                    0.052380193024873734,
                    1
                ],
                "metallicFactor" : 0,
                "roughnessFactor" : 0.5
            }
        }
    ],
    "meshes" : [
        {
            "name" : "Cube.009",
            "primitives" : [
                {
                    "attributes" : {
                        "POSITION" : 0,
                        "NORMAL" : 1,
                        "TEXCOORD_0" : 2
                    },
                    "indices" : 3,
                    "material" : 0
                }
            ]
        },
        {
            "name" : "Cube.011",
            "primitives" : [
                {
                    "attributes" : {
                        "POSITION" : 4,
                        "NORMAL" : 5,
                        "TEXCOORD_0" : 6
                    },
                    "indices" : 7,
                    "material" : 1
                }
            ]
        },
        {
            "name" : "Plane.008",
            "primitives" : [
                {
                    "attributes" : {
                        "POSITION" : 8,
                        "NORMAL" : 9,
                        "TEXCOORD_0" : 10
                    },
                    "indices" : 11,
                    "material" : 2
                }
            ]
        },
        {
            "name" : "Plane.006",
            "primitives" : [
                {
                    "attributes" : {
                        "POSITION" : 12,
                        "NORMAL" : 13,
                        "TEXCOORD_0" : 14
                    },
                    "indices" : 11,
                    "material" : 3
                }
            ]
        },
        {
            "name" : "Plane.007",
            "primitives" : [
                {
                    "attributes" : {
                        "POSITION" : 15,
                        "NORMAL" : 16,
                        "TEXCOORD_0" : 17
                    },
                    "indices" : 11,
                    "material" : 4
                }
            ]
        },
        {
            "name" : "Plane.011",
            "primitives" : [
                {
                    "attributes" : {
                        "POSITION" : 18,
                        "NORMAL" : 19,
                        "TEXCOORD_0" : 20
                    },
                    "indices" : 11,
                    "material" : 5
                }
            ]
        }
    ],
    "accessors" : [
        {
            "bufferView" : 0,
            "componentType" : 5126,
            "count" : 14787,
            "max" : [
                0.8724324107170105,
                1.3049660921096802,
                0.46139049530029297
            ],
            "min" : [
                -1.4175878763198853,
                -1.3049659729003906,
                -0.46139049530029297
            ],
            "type" : "VEC3"
        },
        {
            "bufferView" : 1,
            "componentType" : 5126,
            "count" : 14787,
            "type" : "VEC3"
        },
        {
            "bufferView" : 2,
            "componentType" : 5126,
            "count" : 14787,
            "type" : "VEC2"
        },
        {
            "bufferView" : 3,
            "componentType" : 5123,
            "count" : 75456,
            "type" : "SCALAR"
        },
        {
            "bufferView" : 4,
            "componentType" : 5126,
            "count" : 22968,
            "max" : [
                1.0000001192092896,
                1.0000001192092896,
                1.0000005960464478
            ],
            "min" : [
                -1.0000004768371582,
                -21.16001319885254,
                -1.4145716428756714
            ],
            "type" : "VEC3"
        },
        {
            "bufferView" : 5,
            "componentType" : 5126,
            "count" : 22968,
            "type" : "VEC3"
        },
        {
            "bufferView" : 6,
            "componentType" : 5126,
            "count" : 22968,
            "type" : "VEC2"
        },
        {
            "bufferView" : 7,
            "componentType" : 5123,
            "count" : 124416,
            "type" : "SCALAR"
        },
        {
            "bufferView" : 8,
            "componentType" : 5126,
            "count" : 1196,
            "max" : [
                1.000106930732727,
                1.0753996093626483e-07,
                3.5042197704315186
            ],
            "min" : [
                -1.0002949237823486,
                -0.16310571134090424,
                -1.0005323886871338
            ],
            "type" : "VEC3"
        },
        {
            "bufferView" : 9,
            "componentType" : 5126,
            "count" : 1196,
            "type" : "VEC3"
        },
        {
            "bufferView" : 10,
            "componentType" : 5126,
            "count" : 1196,
            "type" : "VEC2"
        },
        {
            "bufferView" : 11,
            "componentType" : 5123,
            "count" : 6336,
            "type" : "SCALAR"
        },
        {
            "bufferView" : 12,
            "componentType" : 5126,
            "count" : 1196,
            "max" : [
                1.000106930732727,
                1.0753996093626483e-07,
                3.5042197704315186
            ],
            "min" : [
                -1.0002949237823486,
                -0.16310571134090424,
                -1.0005323886871338
            ],
            "type" : "VEC3"
        },
        {
            "bufferView" : 13,
            "componentType" : 5126,
            "count" : 1196,
            "type" : "VEC3"
        },
        {
            "bufferView" : 14,
            "componentType" : 5126,
            "count" : 1196,
            "type" : "VEC2"
        },
        {
            "bufferView" : 15,
            "componentType" : 5126,
            "count" : 1196,
            "max" : [
                1.000106930732727,
                1.0753996093626483e-07,
                3.5042197704315186
            ],
            "min" : [
                -1.0002949237823486,
                -0.16310571134090424,
                -1.0005323886871338
            ],
            "type" : "VEC3"
        },
        {
            "bufferView" : 16,
            "componentType" : 5126,
            "count" : 1196,
            "type" : "VEC3"
        },
        {
            "bufferView" : 17,
            "componentType" : 5126,
            "count" : 1196,
            "type" : "VEC2"
        },
        {
            "bufferView" : 18,
            "componentType" : 5126,
            "count" : 1196,
            "max" : [
                1.000106930732727,
                1.0753996093626483e-07,
                3.5042197704315186
            ],
            "min" : [
                -1.0002949237823486,
                -0.16310571134090424,
                -1.0005323886871338
            ],
            "type" : "VEC3"
        },
        {
            "bufferView" : 19,
            "componentType" : 5126,
            "count" : 1196,
            "type" : "VEC3"
        },
        {
            "bufferView" : 20,
            "componentType" : 5126,
            "count" : 1196,
            "type" : "VEC2"
        }
    ],
    "bufferViews" : [
        {
            "buffer" : 0,
            "byteLength" : 177444,
            "byteOffset" : 0
        },
        {
            "buffer" : 0,
            "byteLength" : 177444,
            "byteOffset" : 177444
        },
        {
            "buffer" : 0,
            "byteLength" : 118296,
            "byteOffset" : 354888
        },
        {
            "buffer" : 0,
            "byteLength" : 150912,
            "byteOffset" : 473184
        },
        {
            "buffer" : 0,
            "byteLength" : 275616,
            "byteOffset" : 624096
        },
        {
            "buffer" : 0,
            "byteLength" : 275616,
            "byteOffset" : 899712
        },
        {
            "buffer" : 0,
            "byteLength" : 183744,
            "byteOffset" : 1175328
        },
        {
            "buffer" : 0,
            "byteLength" : 248832,
            "byteOffset" : 1359072
        },
        {
            "buffer" : 0,
            "byteLength" : 14352,
            "byteOffset" : 1607904
        },
        {
            "buffer" : 0,
            "byteLength" : 14352,
            "byteOffset" : 1622256
        },
        {
            "buffer" : 0,
            "byteLength" : 9568,
            "byteOffset" : 1636608
        },
        {
            "buffer" : 0,
            "byteLength" : 12672,
            "byteOffset" : 1646176
        },
        {
            "buffer" : 0,
            "byteLength" : 14352,
            "byteOffset" : 1658848
        },
        {
            "buffer" : 0,
            "byteLength" : 14352,
            "byteOffset" : 1673200
        },
        {
            "buffer" : 0,
            "byteLength" : 9568,
            "byteOffset" : 1687552
        },
        {
            "buffer" : 0,
            "byteLength" : 14352,
            "byteOffset" : 1697120
        },
        {
            "buffer" : 0,
            "byteLength" : 14352,
            "byteOffset" : 1711472
        },
        {
            "buffer" : 0,
            "byteLength" : 9568,
            "byteOffset" : 1725824
        },
        {
            "buffer" : 0,
            "byteLength" : 14352,
            "byteOffset" : 1735392
        },
        {
            "buffer" : 0,
            "byteLength" : 14352,
            "byteOffset" : 1749744
        },
        {
            "buffer" : 0,
            "byteLength" : 9568,
            "byteOffset" : 1764096
        }
    ],
    "buffers" : [
        {
            "byteLength" : 1773664,
            "uri" : "data:application/octet-stream;base64,"
        }
    ]
}
